<?xml version="1.0"?>
<svg xmlns="http://www.w3.org/2000/svg" xmlns:xlink="http://www.w3.org/1999/xlink" xmlns:svgjs="http://svgjs.com/svgjs" version="1.1" width="512" height="512" x="0" y="0" viewBox="0 0 512 512" style="enable-background:new 0 0 512 512" xml:space="preserve" class=""><g>
<g xmlns="http://www.w3.org/2000/svg">
	<g>
		<path d="M254.766,187.106c-1.649-1.785-3.297-2.677-4.944-2.677h-16.205v20.874h16.892c1.648,0,3.181-0.914,4.601-2.747    c1.418-1.83,2.128-4.394,2.128-7.69C257.237,191.479,256.414,188.891,254.766,187.106z" fill="#c53030" data-original="#000000" style=""/>
	</g>
</g>
<g xmlns="http://www.w3.org/2000/svg">
	<g>
		<path d="M34.332,74.386V360.49h443.336V74.386H34.332z M190.702,246.364c-2.977,2.839-6.364,5.219-10.163,7.141    c-3.8,1.923-7.875,3.389-12.222,4.395c-4.35,1.006-8.583,1.511-12.703,1.511c-7.234,0-13.849-1.442-19.845-4.326    c-5.998-2.884-11.171-6.705-15.518-11.467c-4.35-4.76-7.714-10.163-10.094-16.205c-2.381-6.043-3.57-12.175-3.57-18.402    c0-5.95,1.12-11.81,3.365-17.578c2.242-5.768,5.515-10.939,9.819-15.519c4.302-4.577,9.52-8.285,15.655-11.123    c6.133-2.837,13.136-4.257,21.012-4.257c9.428,0,17.599,1.946,24.513,5.837c6.911,3.892,12.061,9.043,15.45,15.45l-20.462,14.557    c-0.916-2.379-2.128-4.348-3.639-5.905c-1.51-1.556-3.182-2.792-5.012-3.708c-1.833-0.913-3.731-1.556-5.699-1.923    c-1.97-0.365-3.869-0.55-5.7-0.55c-3.845,0-7.165,0.755-9.956,2.266c-2.794,1.51-5.081,3.481-6.867,5.905    c-1.785,2.426-3.114,5.173-3.982,8.24c-0.871,3.069-1.305,6.112-1.305,9.132c0,3.389,0.503,6.639,1.511,9.75    c1.006,3.113,2.472,5.86,4.395,8.24c1.923,2.381,4.279,4.281,7.073,5.699c2.791,1.42,5.927,2.128,9.406,2.128    c1.831,0,3.708-0.206,5.631-0.618s3.776-1.098,5.562-2.059c1.786-0.962,3.386-2.197,4.807-3.708    c1.418-1.511,2.541-3.365,3.365-5.562l21.835,13.047C195.897,240.322,193.676,243.528,190.702,246.364z M260.809,258.588v-0.001    l-17.167-29.937h-10.026v29.937h-26.779v-97.504h44.77c4.76,0,9.154,0.985,13.183,2.953c4.029,1.97,7.486,4.532,10.37,7.69    c2.884,3.159,5.149,6.776,6.797,10.849c1.648,4.074,2.472,8.171,2.472,12.291c0,5.678-1.236,10.965-3.708,15.862    c-2.471,4.898-5.905,8.905-10.3,12.016l20.6,35.843H260.809z M373.279,258.587v-51.361l-16.342,36.117h-14.282l-16.343-36.118    v51.361h-26.779v-97.504h29.251l21.011,45.868l21.149-45.868h29.113v97.505H373.279z" fill="#c53030" data-original="#000000" style=""/>
	</g>
</g>
<g xmlns="http://www.w3.org/2000/svg">
	<g>
		<rect y="391.837" width="512" height="45.777" fill="#c53030" data-original="#000000" style=""/>
	</g>
</g>
<g xmlns="http://www.w3.org/2000/svg">
</g>
<g xmlns="http://www.w3.org/2000/svg">
</g>
<g xmlns="http://www.w3.org/2000/svg">
</g>
<g xmlns="http://www.w3.org/2000/svg">
</g>
<g xmlns="http://www.w3.org/2000/svg">
</g>
<g xmlns="http://www.w3.org/2000/svg">
</g>
<g xmlns="http://www.w3.org/2000/svg">
</g>
<g xmlns="http://www.w3.org/2000/svg">
</g>
<g xmlns="http://www.w3.org/2000/svg">
</g>
<g xmlns="http://www.w3.org/2000/svg">
</g>
<g xmlns="http://www.w3.org/2000/svg">
</g>
<g xmlns="http://www.w3.org/2000/svg">
</g>
<g xmlns="http://www.w3.org/2000/svg">
</g>
<g xmlns="http://www.w3.org/2000/svg">
</g>
<g xmlns="http://www.w3.org/2000/svg">
</g>
</g></svg>
