<?xml version="1.0"?>
<svg xmlns="http://www.w3.org/2000/svg" xmlns:xlink="http://www.w3.org/1999/xlink" xmlns:svgjs="http://svgjs.com/svgjs" version="1.1" width="512" height="512" x="0" y="0" viewBox="0 0 64 64" style="enable-background:new 0 0 512 512" xml:space="preserve" class=""><g><path xmlns="http://www.w3.org/2000/svg" d="m56.188 17.921c-1.051-1.799-2.296-3.471-3.708-4.987l-14.998 14.998z" fill="#c53030" data-original="#000000" style=""/><path xmlns="http://www.w3.org/2000/svg" d="m31 4.025c-14.645.518-26.457 12.33-26.975 26.975h26.975z" fill="#c53030" data-original="#000000" style=""/><path xmlns="http://www.w3.org/2000/svg" d="m33 4.025v25.561l18.066-18.066c-4.775-4.448-11.1-7.248-18.066-7.495z" fill="#c53030" data-original="#000000" style=""/><path xmlns="http://www.w3.org/2000/svg" d="m18.64 56.602c.853-1.543 2.477-2.602 4.36-2.602.883 0 1.67-.391 2.22-1h-3.456c-1.524 0-2.764-1.24-2.764-2.764 0-.245.033-.489.097-.726.039-.123 2.558-7.996 2.912-10.643.349-2.609 1.674-4.705 3.528-5.867h-21.512c.36 10.183 6.177 19.001 14.615 23.602z" fill="#c53030" data-original="#000000" style=""/><path xmlns="http://www.w3.org/2000/svg" d="m37.995 38.899c.091.631 1.83 6.837 2.905 10.598.067.251.1.495.1.739 0 1.467-1.337 2.706-2.919 2.706l-3.324.03c.55.625 1.347 1.028 2.243 1.028 1.088 0 2.14.366 3.003 1.023.837-.633 1.868-1.023 2.997-1.023 1.654 0 3-1.346 3-3v-.956c-2.474-1.851-4-4.762-4-7.945v-3.099c0-3.86 3.14-7 7-7h2c3.86 0 7 3.14 7 7v3.099c0 .114-.021.224-.025.337 1.301-3.228 2.025-6.748 2.025-10.436 0-4.418-1.032-8.599-2.863-12.318l-23.87 12.774c2.61 1.06 4.461 3.821 4.728 6.443z" fill="#c53030" data-original="#000000" style=""/><path xmlns="http://www.w3.org/2000/svg" d="m20 59v1h9v-3.382l-3.108-1.554c-.819.584-1.813.936-2.892.936-1.654 0-3 1.346-3 3z" fill="#c53030" data-original="#000000" style=""/><path xmlns="http://www.w3.org/2000/svg" d="m32.809 53.708c-.469-.723-.746-1.574-.787-2.488-.017.007-.036.017-.052.024-.626.269-1.298.402-1.97.402s-1.344-.134-1.97-.402c-.014-.006-.038-.018-.053-.024-.037.841-.284 1.623-.688 2.307l2.742 1.371z" fill="#c53030" data-original="#000000" style=""/><path xmlns="http://www.w3.org/2000/svg" d="m48.818 49.406c.751.321 1.612.321 2.363 0 2.656-1.138 4.442-3.608 4.754-6.433-1.635-.325-3.039-1.296-3.902-2.68-1.062 1.646-2.894 2.739-4.972 2.762l-2.988.033c.347 2.777 2.125 5.195 4.745 6.318z" fill="#c53030" data-original="#000000" style=""/><path xmlns="http://www.w3.org/2000/svg" d="m51 37.049c0-.514.39-.969.901-1.02.504-.051.978.27 1.079.774l.215 1.077c.3 1.499 1.397 2.639 2.804 3.047v-1.927c0-2.757-2.243-5-5-5h-2c-2.757 0-5 2.243-5 5v2.088l3.039-.033c2.185-.025 3.962-1.822 3.962-4.006z" fill="#c53030" data-original="#000000" style=""/><path xmlns="http://www.w3.org/2000/svg" d="m43 56c-1.654 0-3 1.346-3 3v1h9v-3.382l-3.108-1.554c-.819.584-1.813.936-2.892.936z" fill="#c53030" data-original="#000000" style=""/><path xmlns="http://www.w3.org/2000/svg" d="m31.182 49.406c1.689-.724 3.629-2.272 3.818-3.513.125-.82-.432-2.394-1.002-3.509-.152-.298-.311-.563-.484-.813 0 0 0 0 0-.001-.246-.354-.517-.668-.828-.959-.181-.169-.346-.34-.495-.513-1.033 1.767-2.951 2.957-5.141 2.957-.533.006-1.104.375-1.516.988-.471.699-.632 1.564-.401 2.154.568 1.447 2.34 2.633 3.686 3.21.75.32 1.612.32 2.363-.001z" fill="#c53030" data-original="#000000" style=""/><path xmlns="http://www.w3.org/2000/svg" d="m39 50.236c0-.068-.009-.136-.027-.203-.673-2.355-2.888-10.145-2.968-10.933-.245-2.412-2.361-5.1-5.005-5.1h-2c-2.985 0-4.667 2.578-5.009 5.133-.378 2.822-2.871 10.614-2.977 10.944-.005.023-.014.091-.014.159 0 .421.343.764.764.764h4.236v-.895c-1.049-.728-2.178-1.774-2.729-3.179-.475-1.21-.244-2.744.604-4.002.792-1.175 1.945-1.857 3.164-1.87 2.189 0 3.961-1.772 3.961-3.95v-.104c0-.514.39-.944.901-.995.514-.057.978.294 1.079.799l.215 1.077c.076.377.372.817.856 1.271.415.389.776.807 1.104 1.279.226.324.429.666.623 1.043.347.678 1.458 3.021 1.199 4.722-.243 1.592-1.615 2.956-2.978 3.903v.88l4.072-.036c.482-.001.929-.344.929-.707z" fill="#c53030" data-original="#000000" style=""/><path xmlns="http://www.w3.org/2000/svg" d="m38 59c0-.9.258-1.733.676-2.464-.493-.343-1.066-.536-1.676-.536-.975 0-1.879-.292-2.649-.777l-3.351 1.436v3.341h7z" fill="#c53030" data-original="#000000" style=""/><path xmlns="http://www.w3.org/2000/svg" d="m51.97 51.244c-.626.268-1.298.402-1.97.402s-1.344-.134-1.97-.402c-.018-.008-.034-.019-.052-.027-.037.842-.283 1.625-.688 2.31l2.742 1.371 2.777-1.19c-.469-.724-.747-1.576-.787-2.492-.018.008-.034.02-.052.028z" fill="#c53030" data-original="#000000" style=""/><path xmlns="http://www.w3.org/2000/svg" d="m60 59c0-1.654-1.346-3-3-3-.975 0-1.879-.292-2.649-.777l-3.351 1.436v3.341h9z" fill="#c53030" data-original="#000000" style=""/></g></svg>
