
<svg version="1.0" xmlns="http://www.w3.org/2000/svg"
 width="204.000000pt" height="239.000000pt" viewBox="0 0 204.000000 239.000000"
 preserveAspectRatio="xMidYMid meet">

<g transform="translate(0.000000,239.000000) scale(0.100000,-0.100000)"
fill="#000000" stroke="none">
<path d="M443 2163 c-13 -2 -23 -7 -23 -10 0 -14 83 -114 107 -130 20 -13 59
-18 178 -23 171 -7 205 -18 205 -67 0 -28 -83 -116 -230 -245 l-65 -57 25 -21
c43 -36 124 -90 135 -90 21 0 146 112 215 193 133 156 165 258 107 345 -45 69
-97 92 -234 102 -118 10 -378 11 -420 3z"/>
<path d="M360 1645 c0 -259 4 -487 9 -508 10 -43 46 -87 71 -87 9 0 29 14 46
31 l29 30 3 422 3 422 -81 80 -80 80 0 -470z"/>
<path d="M1055 1581 c-39 -8 -54 -46 -35 -91 7 -17 92 -113 188 -212 224 -232
272 -305 272 -414 0 -82 -47 -166 -123 -217 -40 -28 -46 -29 -122 -24 -110 8
-246 45 -415 112 -164 66 -221 74 -251 36 -27 -33 -24 -87 5 -126 49 -64 253
-150 427 -181 130 -23 356 -24 429 -2 75 23 143 68 180 119 48 67 64 136 64
275 -1 118 -2 124 -36 195 -67 140 -219 330 -344 429 -105 83 -177 114 -239
101z"/>
<path d="M591 1384 c0 -38 4 -77 8 -87 7 -19 306 -158 423 -198 105 -35 143
-20 136 54 -2 26 -13 39 -59 70 -72 47 -431 217 -475 224 l-34 6 1 -69z"/>
</g>
</svg>
